<svg width="25" height="26" viewBox="0 0 25 26" fill="none" xmlns="http://www.w3.org/2000/svg">
<path d="M10.1657 19.8314C5.66295 19.8314 2 16.1685 2 11.6657C2 7.16295 5.66295 3.5 10.1657 3.5C14.6685 3.5 18.3314 7.16295 18.3314 11.6657C18.3314 16.1685 14.6685 19.8314 10.1657 19.8314ZM10.1657 5.73946C6.89883 5.73946 4.23946 8.39883 4.23946 11.6657C4.23946 14.9326 6.89883 17.5919 10.1657 17.5919C13.4326 17.5919 16.0919 14.9326 16.0919 11.6657C16.0919 8.39883 13.4326 5.73946 10.1657 5.73946Z" fill="#383A6B"/>
<path d="M7.14589 12.9165C6.65154 12.9165 6.24951 12.5145 6.24951 12.0201C6.24951 10.9749 6.6575 9.99212 7.39605 9.2506C8.13459 8.51205 9.12031 8.10406 10.1656 8.10406C10.6599 8.10406 11.062 8.5061 11.062 9.00045C11.062 9.4948 10.6599 9.89683 10.1656 9.89683C9.5968 9.89683 9.06373 10.1172 8.66468 10.5192C8.26265 10.9213 8.04227 11.4543 8.04227 12.0201C8.04227 12.5145 7.64024 12.9165 7.14589 12.9165Z" fill="#383A6B"/>
<path d="M20.5798 23.688C21.1784 24.221 22.0986 24.1704 22.6317 23.5689C23.1648 22.9673 23.1141 22.0501 22.5126 21.517L16.6816 16.3174C16.083 15.7843 15.1628 15.835 14.6298 16.4365C14.0967 17.0351 14.1473 17.9553 14.7489 18.4884L20.5798 23.688Z" fill="#383A6B"/>
</svg>
