<svg width="18" height="19" viewBox="0 0 18 19" fill="none" xmlns="http://www.w3.org/2000/svg">
<g clip-path="url(#clip0_118_12)">
<path d="M3.73323 2.63729C3.69882 3.217 3.78331 3.79763 3.98145 4.34306C4.17959 4.88848 4.48713 5.38703 4.88495 5.80768C4.11175 6.03081 3.4195 6.47499 2.8922 7.08633C2.3649 7.69767 2.0252 8.4499 1.91434 9.25174C1.647 11.176 2.03921 13.1345 3.02629 14.8042L3.31036 15.2862C3.32113 15.3039 3.33278 15.3211 3.34526 15.3377L4.49455 16.8947C4.73797 17.2247 5.04994 17.4973 5.40872 17.6936C5.7675 17.8899 6.16448 18.0051 6.57201 18.0312C6.97954 18.0573 7.38784 17.9937 7.76846 17.8449C8.14909 17.696 8.4929 17.4654 8.77596 17.1691C8.80905 17.1345 8.84876 17.1069 8.89269 17.0881C8.93662 17.0693 8.98388 17.0596 9.03162 17.0596C9.07937 17.0596 9.12663 17.0693 9.17056 17.0881C9.21449 17.1069 9.2542 17.1345 9.28729 17.1691C9.57035 17.4654 9.91416 17.696 10.2948 17.8449C10.6754 17.9937 11.0837 18.0573 11.4912 18.0312C11.8988 18.0051 12.2957 17.8899 12.6545 17.6936C13.0133 17.4973 13.3253 17.2247 13.5687 16.8947L14.718 15.3368C14.7302 15.3203 14.7416 15.3031 14.7521 15.2854L15.037 14.8034C16.0245 13.1344 16.4176 11.1765 16.1513 9.25256C16.0728 8.68564 15.8794 8.14099 15.5832 7.65233C15.2871 7.16366 14.8944 6.74139 14.4295 6.41165C13.9646 6.0819 13.4374 5.85171 12.8806 5.73532C12.3238 5.61892 11.7491 5.61881 11.1922 5.73498L9.64928 6.05684H9.64685C9.6712 5.41966 9.77022 4.73346 9.9642 4.14692C10.1996 3.43785 10.5259 3.01143 10.8895 2.85949C11.0385 2.79688 11.1568 2.67723 11.2182 2.52686C11.2796 2.3765 11.2792 2.20773 11.217 2.0577C11.1548 1.90767 11.0359 1.78865 10.8865 1.72683C10.7371 1.66502 10.5694 1.66547 10.4203 1.72808C9.5665 2.0867 9.08114 2.93709 8.80924 3.7589L8.7719 3.8749C8.57202 3.48618 8.31387 3.13075 8.00652 2.82109C7.58559 2.39695 7.07993 2.06765 6.52304 1.855C5.96614 1.64235 5.37072 1.55119 4.77619 1.58757C4.50487 1.60329 4.24871 1.71869 4.05632 1.91188C3.86392 2.10507 3.74867 2.36262 3.73242 2.63566M6.10728 9.01974C5.82564 9.0761 5.56754 9.27543 5.40602 9.65529C5.24126 10.0425 5.18282 10.6168 5.36057 11.3332C5.39711 11.4899 5.37093 11.6548 5.28768 11.7922C5.20443 11.9296 5.07081 12.0285 4.91568 12.0676C4.76055 12.1066 4.59639 12.0827 4.45866 12.0009C4.32093 11.9191 4.2207 11.7861 4.17963 11.6306C3.95237 10.714 3.99539 9.85788 4.28677 9.1725C4.58139 8.48058 5.13493 7.96512 5.86866 7.81808C5.94817 7.79919 6.03066 7.7966 6.11119 7.81047C6.19172 7.82434 6.26865 7.85439 6.33741 7.89882C6.40616 7.94325 6.46532 8.00115 6.51136 8.06908C6.55741 8.13701 6.5894 8.21357 6.60542 8.29421C6.62144 8.37484 6.62117 8.4579 6.60463 8.53843C6.58808 8.61896 6.5556 8.69531 6.50912 8.76294C6.46263 8.83056 6.4031 8.88808 6.33406 8.93206C6.26503 8.97604 6.1879 9.0064 6.10728 9.01974Z" fill="#B6D9DE"/>
</g>
<defs>
<clipPath id="clip0_118_12">
<rect width="18" height="18" fill="white" transform="translate(0 0.5)"/>
</clipPath>
</defs>
</svg>
